# xmcd
#
# Track frame offsets:
#       150
#       23250
#       43675
#       63025
#       79150
#       95075
#       128525
#       151925
#       171075
#
# Disc length: 2547 seconds
#
#
# Revision: 0
# Processed by: cddbd v1.4PL0 Copyright (c) Steve Scherf et al.
# Submitted via: Visual Ripper tool of Visual MP3 v4.18
#
DISCID=5e09f109
DTITLE=Chiyi - Whoever finds this, I love you
DYEAR=1900
DGENRE=Blues
TTITLE0=You Got A Nerve
TTITLE1=Waiting For The Morning
TTITLE2=Make No Mistake, He's Mine
TTITLE3=He's So Beautiful To Me
TTITLE4=Angels, Roses And Rain
TTITLE5=Lady On The Other Side Of Town
TTITLE6=Whoever Finds This I Love You
TTITLE7=Vincent
TTITLE8=Yesterday When I Was Young
EXTD=
EXTT0=
EXTT1=
EXTT2=
EXTT3=
EXTT4=
EXTT5=
EXTT6=
EXTT7=
EXTT8=
PLAYORDER=
